PathFileType	4	(X/Y/Z)	0_coords_data.trc
DataRate	CameraRate	NumFrames	NumMarkers	Units	OrigDataRate	OrigDataStartFrame	OrigNumFrames
30.0	30.0	6	21	m	30.0	10	65
Frame#	Time	THUMB_TIP	THUMB_IP	THUMB_MCP	THUMB_CMC	INDEX_TIP	INDEX_DIP	INDEX_PIP	INDEX_MCP	MIDDLE_TIP	MIDDLE_DIP	MIDDLE_PIP	MIDDLE_MCP	RING_TIP	RING_DIP	RING_PIP	RING_MCP	PINKY_TIP	PINKY_DIP	PINKY_PIP	PINKY_MCP	WRIST
X1	Y1	Z1	X2	Y2	Z2	X3	Y3	Z3	X4	Y4	Z4	X5	Y5	Z5	X6	Y6	Z6	X7	Y7	Z7	X8	Y8	Z8	X9	Y9	Z9	X10	Y10	Z10	X11	Y11	Z11	X12	Y12	Z12	X13	Y13	Z13	X14	Y14	Z14	X15	Y15	Z15	X16	Y16	Z16	X17	Y17	Z17	X18	Y18	Z18	X19	Y19	Z19	X20	Y20	Z20	X21	Y21	Z21
9	0.3	0.03690879821777344	-0.02297690010070801	0.939739990234375	0.03128319931030273	-0.043780200958251955	0.9556909790039062	0.0166018009185791	-0.05624259948730469	0.982822021484375	0.007063920021057129	-0.024303699493408205	0.9970390014648437	0.002442430019378662	-0.04609040069580078	0.9661119995117188	0.014500200271606445	-0.04791630172729492	0.9504359741210937	0.009337269783020019	-0.051667999267578125	0.9274089965820312	-0.03039900016784668	-0.05248249816894531	0.9453619995117187	0.014261300086975098	-0.029677499771118165	0.9668920288085937	0.018183700561523436	-0.027750999450683593	0.9574569702148438	0.016787099838256835	-0.02765399932861328	0.9280360107421874	-0.030952199935913086	-0.028923900604248046	0.9358499755859375	0.012823800086975097	-0.013746600151062011	0.9692899780273437	0.01716239929199219	-0.009473750114440918	0.9673900146484375	0.02627519989013672	-0.006947760105133057	0.939781982421875	-0.02153420066833496	-0.004574049949645996	0.9347969970703125	0.003518690109252929	0.006541910171508789	0.9753900146484376	0.015800000190734863	0.006767819881439209	0.967781982421875	0.022895700454711915	0.012033900260925294	0.9463060302734375	-0.012124699592590332	0.019036399841308595	0.9384229736328125	-0.025202199935913085	0.001073979973793029	1.0175
10	0.3333333333333333	0.0372218017578125	-0.02364349937438965	0.939323974609375	0.03145490074157715	-0.044570098876953124	0.9555689697265625	0.016827299118041993	-0.05670880126953125	0.98272998046875	0.007233280181884766	-0.0247096004486084	0.9967479858398437	0.0023369600772857662	-0.047052600860595706	0.96531201171875	0.014797200202941894	-0.048623401641845705	0.9502119750976562	0.009516469955444336	-0.0522666015625	0.9272030029296875	-0.030176599502563475	-0.05302230072021484	0.9452730102539062	0.014424099922180175	-0.030270999908447265	0.9662080078125	0.018439399719238282	-0.028402599334716797	0.9569869995117187	0.01695280075073242	-0.028306900024414064	0.927708984375	-0.03069849967956543	-0.029465099334716797	0.935843994140625	0.013344499588012695	-0.014038000106811523	0.96906201171875	0.0175	-0.010295599937438964	0.9666259765625	0.02649650001525879	-0.007823309898376464	0.9392479858398437	-0.021235300064086915	-0.005246719837188721	0.9343400268554688	0.0040644798278808595	0.00574029016494751	0.9748359985351562	0.01622089958190918	0.006162600040435791	0.9674609985351562	0.023343799591064453	0.011451399803161622	0.9460859985351563	-0.011706999778747559	0.018331199645996093	0.937989990234375	-0.024766500473022462	0.0006580820083618161	1.0174199829101562
11	0.36666666666666664	0.03722219848632812	-0.024186100006103516	0.9391900024414063	0.03139430046081543	-0.04511240005493164	0.9554669799804687	0.01670199966430664	-0.05719800186157226	0.9825640258789062	0.0072798700332641604	-0.02536440086364746	0.9965159912109375	0.002378710031509399	-0.047528099060058594	0.9652949829101563	0.014753800392150879	-0.04914099884033203	0.9500349731445312	0.009543379783630372	-0.05282939910888672	0.92697900390625	-0.030166799545288087	-0.05346289825439453	0.9449240112304688	0.014346699714660644	-0.030920400619506835	0.9659080200195312	0.01838800048828125	-0.02894129943847656	0.9570490112304687	0.017091800689697265	-0.028928600311279296	0.9276500244140625	-0.03073139953613281	-0.029890600204467772	0.9356630249023438	0.013393500328063964	-0.014739299774169922	0.96885498046875	0.017365999221801758	-0.01069029998779297	0.9666019897460938	0.026679399490356446	-0.008374309539794922	0.9391220092773438	-0.021063899993896483	-0.00560069990158081	0.9344000244140624	0.0039443099498748775	0.005290729999542236	0.9747739868164063	0.016217399597167968	0.005627739906311035	0.967322998046875	0.023479499816894532	0.010809599876403808	0.9459390258789062	-0.011445500373840333	0.017940099716186524	0.9378510131835938	-0.024814599990844725	0.000104226000607013	1.0171400146484375
12	0.4	0.0371161003112793	-0.024794200897216796	0.9389979858398437	0.031153400421142577	-0.045675399780273435	0.95539501953125	0.01648150062561035	-0.057834400177001956	0.9824500122070312	0.007128290176391602	-0.025795900344848632	0.9964219970703125	0.001537789940834045	-0.04797140121459961	0.9653109741210938	0.014470000267028809	-0.049642799377441406	0.9499030151367187	0.009349909782409668	-0.05328689956665039	0.926926025390625	-0.030483999252319337	-0.053781600952148435	0.9446690063476563	0.014088199615478516	-0.03146960067749023	0.965698974609375	0.018126899719238282	-0.029551700592041017	0.9569249877929688	0.016923799514770507	-0.029469499588012694	0.927718994140625	-0.030755399703979492	-0.030249500274658205	0.93547900390625	0.013034899711608887	-0.01517520046234131	0.968916015625	0.017245800018310546	-0.011282600402832032	0.9665339965820312	0.026665399551391602	-0.008878879547119141	0.9393280029296875	-0.02123360061645508	-0.006050539970397949	0.9341799926757812	0.004012569904327392	0.004568470001220703	0.974552001953125	0.0161018009185791	0.005140639781951904	0.9673759765625	0.02343199920654297	0.01024940013885498	0.945947021484375	-0.011521300315856934	0.01740920066833496	0.9376129760742188	-0.025018800735473634	-0.000240085005760192	1.0169199829101563
13	0.43333333333333335	0.03672919845581055	-0.025275999069213868	0.9388590087890625	0.030837499618530273	-0.046135799407958984	0.9550800170898438	0.016029199600219726	-0.058121601104736326	0.982343994140625	0.006819089889526367	-0.025890199661254883	0.9961729736328125	0.0015465199947357169	-0.04836009979248047	0.965073974609375	0.014001299858093261	-0.049941600799560545	0.9494450073242188	0.008925359725952148	-0.05365039825439453	0.9267769775390625	-0.030816299438476562	-0.05404859924316406	0.9446619873046875	0.013859399795532227	-0.03182600021362305	0.9655599975585938	0.017917400360107423	-0.02983219909667969	0.9566710205078125	0.016616899490356444	-0.029833499908447265	0.9275780029296875	-0.03116740036010742	-0.03053689956665039	0.9354210205078125	0.012239000320434571	-0.015298299789428711	0.9692059936523437	0.016878400802612305	-0.011595999717712403	0.9664500122070312	0.02617609977722168	-0.009262350082397461	0.93914501953125	-0.02143239974975586	-0.006321239948272705	0.9341019897460937	0.003640199899673462	0.004827929973602295	0.9742579956054688	0.01576210021972656	0.004807260036468506	0.9671339721679687	0.023305400848388672	0.010006400108337402	0.9461229858398438	-0.011625100135803222	0.01711020088195801	0.9375560302734375	-0.025270999908447264	-0.000516757011413574	1.0167999877929688
14	0.4666666666666667	0.036270698547363284	-0.025522800445556642	0.9388610229492188	0.03035059928894043	-0.0464010009765625	0.9549940185546875	0.015453800201416016	-0.05831809997558594	0.9822369995117187	0.006392630100250244	-0.02625629997253418	0.9960570068359375	0.0012968800067901611	-0.04830059814453125	0.9648369750976562	0.013580300331115723	-0.05011700057983398	0.9495969848632813	0.008413100242614746	-0.05384550094604492	0.926655029296875	-0.03139599990844726	-0.0540796012878418	0.9446400146484375	0.013284099578857423	-0.0319463005065918	0.9656829833984375	0.017399200439453123	-0.03007159996032715	0.9565159912109376	0.016119699478149414	-0.02996980094909668	0.9274719848632812	-0.0316343994140625	-0.03054290008544922	0.9353419799804688	0.012540399551391601	-0.0157524995803833	0.9683319702148437	0.016456300735473633	-0.011749600410461426	0.9661929931640625	0.025894899368286133	-0.009567119598388673	0.93877099609375	-0.021781600952148438	-0.006383679866790772	0.9340880126953125	0.003299109935760498	0.004605259895324707	0.974072998046875	0.015263999938964844	0.004701590061187744	0.9670330200195313	0.02272089958190918	0.009661729812622071	0.9455180053710938	-0.011980500221252442	0.017033700942993165	0.937552978515625	-0.025579000473022463	-0.000322548002004623	1.0165399780273439
